<svg xmlns="http://www.w3.org/2000/svg" width="650.4" height="496.242" viewBox="0 0 650.4 496.242">
  <g id="Grupo_1084967" data-name="Grupo 1084967" transform="translate(-224.801 -25669.758)">
    <g id="OBJECTS" transform="matrix(0.966, -0.259, 0.259, 0.966, 224.801, 25726.855)">
      <g id="Grupo_1076382" data-name="Grupo 1076382" transform="translate(0)">
        <path id="Trazado_825349" data-name="Trazado 825349" d="M178.04,42.413C158.446,53.719,142.279,69.17,131.33,87.23l-4.144,6.8.051-7.981c.051-3.581.153-7.214.358-11,.153-2.763.358-5.577.614-8.39A143.711,143.711,0,0,0,92.243,74.9a135.741,135.741,0,0,0-18.469,8.339c-2.353,1.228-4.656,2.609-7.009,4.042l-1.791,1.074-1.586,1.023c-2.353,1.535-4.758,3.172-7.009,4.911A158.255,158.255,0,0,0,4.246,161.925L0,169.087V160.8A171.6,171.6,0,0,1,35.455,78.481a181.16,181.16,0,0,1,15.758-17.5A179.185,179.185,0,0,1,69.477,45.533a186.779,186.779,0,0,1,42.668-23.381l.1-.051.1-.051c.1,0,2.2-.614,4.4-1.126l1.074-.256c-1.586-2.149-3.172-4.3-4.809-6.446-2.456-3.172-4.86-6.19-7.163-8.9L101.35,0,108.1,1.791c27.167,7.111,51.724,19.8,70.909,36.682l2.3,2.046h0Z" fill="#231f20" opacity="0.2"/>
        <g id="Grupo_1076381" data-name="Grupo 1076381" transform="translate(2.711 4.298)">
          <path id="Trazado_825350" data-name="Trazado 825350" d="M178.04,42.412C158.446,53.719,142.279,69.17,131.33,87.23l-4.144,6.8.051-7.981c.051-3.581.153-7.214.358-11,.153-2.763.358-5.577.614-8.39A143.711,143.711,0,0,0,92.243,74.9a135.739,135.739,0,0,0-18.469,8.339c-2.353,1.228-4.656,2.609-7.009,4.042l-1.791,1.074-1.586,1.023c-2.353,1.535-4.758,3.172-7.009,4.911A158.255,158.255,0,0,0,4.246,161.925L0,169.087V160.8A171.6,171.6,0,0,1,35.455,78.481a181.16,181.16,0,0,1,15.758-17.5A179.183,179.183,0,0,1,69.477,45.533a186.779,186.779,0,0,1,42.668-23.381l.1-.051.1-.051c.1,0,2.2-.614,4.4-1.126l1.074-.256c-1.586-2.149-3.172-4.3-4.809-6.446-2.456-3.172-4.86-6.19-7.163-8.9L101.35,0,108.1,1.791c27.167,7.111,51.724,19.8,70.909,36.682l2.3,2.046h0Z" transform="translate(1.535)" fill="#fff"/>
          <g id="Grupo_1076380" data-name="Grupo 1076380" transform="translate(0 3.939)">
            <g id="Grupo_1076379" data-name="Grupo 1076379" transform="translate(3.684 0)">
              <path id="Trazado_825351" data-name="Trazado 825351" d="M105.392,0c2.456,2.916,4.86,5.935,7.214,8.953s4.6,6.088,6.753,9.158l-4.3,1.023c-2.149.46-4.3,1.074-4.3,1.074A182.055,182.055,0,0,0,68.607,43.333a184.666,184.666,0,0,0-18.06,15.246A177.105,177.105,0,0,0,34.994,75.872,170.849,170.849,0,0,0,0,157.116,159.665,159.665,0,0,1,52.9,88.56c2.814-2.149,5.781-4.042,8.646-5.986,3.018-1.791,5.935-3.684,9-5.27a139.1,139.1,0,0,1,18.725-8.442,146.69,146.69,0,0,1,39.189-8.6c-.358,3.684-.665,7.316-.87,10.948s-.358,7.214-.358,10.9c10.641-17.5,26.911-33.817,48.091-45.891C157.064,20.106,133.07,7.265,105.392,0Z" fill="#0ad0d9"/>
            </g>
            <path id="Trazado_825352" data-name="Trazado 825352" d="M105.392,0c2.456,2.916,4.86,5.935,7.214,8.953s4.6,6.088,6.753,9.158l-4.3,1.023c-2.149.46-4.3,1.074-4.3,1.074A182.055,182.055,0,0,0,68.607,43.333a184.666,184.666,0,0,0-18.06,15.246A177.105,177.105,0,0,0,34.994,75.872,170.849,170.849,0,0,0,0,157.116s.256-.87.716-2.507c.512-1.637,1.126-4.042,2.2-7.009A158.993,158.993,0,0,1,13.2,123.5,171.667,171.667,0,0,1,33.971,92.857,181.9,181.9,0,0,1,48.5,77.816a186.619,186.619,0,0,1,16.883-13.4A184.9,184.9,0,0,1,83.955,53.361,169.028,169.028,0,0,1,139.209,36.58,159.908,159.908,0,0,1,165.4,35.557c3.172.051,5.628.358,7.316.46,1.688.153,2.609.2,2.609.2C157.064,20.106,133.07,7.265,105.392,0Z" fill="#273a89" opacity="0.18"/>
          </g>
        </g>
      </g>
    </g>
    <g id="OBJECTS-2" data-name="OBJECTS" transform="matrix(-0.809, -0.588, 0.588, -0.809, 580.338, 26166)">
      <g id="Grupo_1076382-2" data-name="Grupo 1076382">
        <path id="Trazado_825349-2" data-name="Trazado 825349" d="M178.04,42.413C158.446,53.719,142.279,69.17,131.33,87.23l-4.144,6.8.051-7.981c.051-3.581.153-7.214.358-11,.153-2.763.358-5.577.614-8.39A143.711,143.711,0,0,0,92.243,74.9a135.741,135.741,0,0,0-18.469,8.339c-2.353,1.228-4.656,2.609-7.009,4.042l-1.791,1.074-1.586,1.023c-2.353,1.535-4.758,3.172-7.009,4.911A158.255,158.255,0,0,0,4.246,161.925L0,169.087V160.8A171.6,171.6,0,0,1,35.455,78.481a181.16,181.16,0,0,1,15.758-17.5A179.185,179.185,0,0,1,69.477,45.533a186.779,186.779,0,0,1,42.668-23.381l.1-.051.1-.051c.1,0,2.2-.614,4.4-1.126l1.074-.256c-1.586-2.149-3.172-4.3-4.809-6.446-2.456-3.172-4.86-6.19-7.163-8.9L101.35,0,108.1,1.791c27.167,7.111,51.724,19.8,70.909,36.682l2.3,2.046h0Z" fill="#231f20" opacity="0.2"/>
        <g id="Grupo_1076381-2" data-name="Grupo 1076381" transform="translate(2.711 4.298)">
          <path id="Trazado_825350-2" data-name="Trazado 825350" d="M178.04,42.412C158.446,53.719,142.279,69.17,131.33,87.23l-4.144,6.8.051-7.981c.051-3.581.153-7.214.358-11,.153-2.763.358-5.577.614-8.39A143.711,143.711,0,0,0,92.243,74.9a135.739,135.739,0,0,0-18.469,8.339c-2.353,1.228-4.656,2.609-7.009,4.042l-1.791,1.074-1.586,1.023c-2.353,1.535-4.758,3.172-7.009,4.911A158.255,158.255,0,0,0,4.246,161.925L0,169.087V160.8A171.6,171.6,0,0,1,35.455,78.481a181.16,181.16,0,0,1,15.758-17.5A179.183,179.183,0,0,1,69.477,45.533a186.779,186.779,0,0,1,42.668-23.381l.1-.051.1-.051c.1,0,2.2-.614,4.4-1.126l1.074-.256c-1.586-2.149-3.172-4.3-4.809-6.446-2.456-3.172-4.86-6.19-7.163-8.9L101.35,0,108.1,1.791c27.167,7.111,51.724,19.8,70.909,36.682l2.3,2.046h0Z" transform="translate(1.535)" fill="#fff"/>
          <g id="Grupo_1076380-2" data-name="Grupo 1076380" transform="translate(0 3.939)">
            <g id="Grupo_1076379-2" data-name="Grupo 1076379" transform="translate(3.684)">
              <path id="Trazado_825351-2" data-name="Trazado 825351" d="M105.392,0c2.456,2.916,4.86,5.935,7.214,8.953s4.6,6.088,6.753,9.158l-4.3,1.023c-2.149.46-4.3,1.074-4.3,1.074A182.055,182.055,0,0,0,68.607,43.333a184.666,184.666,0,0,0-18.06,15.246A177.105,177.105,0,0,0,34.994,75.872,170.849,170.849,0,0,0,0,157.116,159.665,159.665,0,0,1,52.9,88.56c2.814-2.149,5.781-4.042,8.646-5.986,3.018-1.791,5.935-3.684,9-5.27a139.1,139.1,0,0,1,18.725-8.442,146.69,146.69,0,0,1,39.189-8.6c-.358,3.684-.665,7.316-.87,10.948s-.358,7.214-.358,10.9c10.641-17.5,26.911-33.817,48.091-45.891C157.064,20.106,133.07,7.265,105.392,0Z" fill="#0ad0d9"/>
            </g>
            <path id="Trazado_825352-2" data-name="Trazado 825352" d="M105.392,0c2.456,2.916,4.86,5.935,7.214,8.953s4.6,6.088,6.753,9.158l-4.3,1.023c-2.149.46-4.3,1.074-4.3,1.074A182.055,182.055,0,0,0,68.607,43.333a184.666,184.666,0,0,0-18.06,15.246A177.105,177.105,0,0,0,34.994,75.872,170.849,170.849,0,0,0,0,157.116s.256-.87.716-2.507c.512-1.637,1.126-4.042,2.2-7.009A158.993,158.993,0,0,1,13.2,123.5,171.667,171.667,0,0,1,33.971,92.857,181.9,181.9,0,0,1,48.5,77.816a186.619,186.619,0,0,1,16.883-13.4A184.9,184.9,0,0,1,83.955,53.361,169.028,169.028,0,0,1,139.209,36.58,159.908,159.908,0,0,1,165.4,35.557c3.172.051,5.628.358,7.316.46,1.688.153,2.609.2,2.609.2C157.064,20.106,133.07,7.265,105.392,0Z" fill="#273a89" opacity="0.18"/>
          </g>
        </g>
      </g>
    </g>
    <g id="OBJECTS-3" data-name="OBJECTS" transform="translate(838.061 25669.758) rotate(90)">
      <g id="Grupo_1076382-3" data-name="Grupo 1076382">
        <path id="Trazado_825349-3" data-name="Trazado 825349" d="M178.04,42.413C158.446,53.719,142.279,69.17,131.33,87.23l-4.144,6.8.051-7.981c.051-3.581.153-7.214.358-11,.153-2.763.358-5.577.614-8.39A143.711,143.711,0,0,0,92.243,74.9a135.741,135.741,0,0,0-18.469,8.339c-2.353,1.228-4.656,2.609-7.009,4.042l-1.791,1.074-1.586,1.023c-2.353,1.535-4.758,3.172-7.009,4.911A158.255,158.255,0,0,0,4.246,161.925L0,169.087V160.8A171.6,171.6,0,0,1,35.455,78.481a181.16,181.16,0,0,1,15.758-17.5A179.185,179.185,0,0,1,69.477,45.533a186.779,186.779,0,0,1,42.668-23.381l.1-.051.1-.051c.1,0,2.2-.614,4.4-1.126l1.074-.256c-1.586-2.149-3.172-4.3-4.809-6.446-2.456-3.172-4.86-6.19-7.163-8.9L101.35,0,108.1,1.791c27.167,7.111,51.724,19.8,70.909,36.682l2.3,2.046h0Z" fill="#231f20" opacity="0.2"/>
        <g id="Grupo_1076381-3" data-name="Grupo 1076381" transform="translate(2.711 4.298)">
          <path id="Trazado_825350-3" data-name="Trazado 825350" d="M178.04,42.412C158.446,53.719,142.279,69.17,131.33,87.23l-4.144,6.8.051-7.981c.051-3.581.153-7.214.358-11,.153-2.763.358-5.577.614-8.39A143.711,143.711,0,0,0,92.243,74.9a135.739,135.739,0,0,0-18.469,8.339c-2.353,1.228-4.656,2.609-7.009,4.042l-1.791,1.074-1.586,1.023c-2.353,1.535-4.758,3.172-7.009,4.911A158.255,158.255,0,0,0,4.246,161.925L0,169.087V160.8A171.6,171.6,0,0,1,35.455,78.481a181.16,181.16,0,0,1,15.758-17.5A179.183,179.183,0,0,1,69.477,45.533a186.779,186.779,0,0,1,42.668-23.381l.1-.051.1-.051c.1,0,2.2-.614,4.4-1.126l1.074-.256c-1.586-2.149-3.172-4.3-4.809-6.446-2.456-3.172-4.86-6.19-7.163-8.9L101.35,0,108.1,1.791c27.167,7.111,51.724,19.8,70.909,36.682l2.3,2.046h0Z" transform="translate(1.535)" fill="#fff"/>
          <g id="Grupo_1076380-3" data-name="Grupo 1076380" transform="translate(0 3.939)">
            <g id="Grupo_1076379-3" data-name="Grupo 1076379" transform="translate(3.684)">
              <path id="Trazado_825351-3" data-name="Trazado 825351" d="M105.392,0c2.456,2.916,4.86,5.935,7.214,8.953s4.6,6.088,6.753,9.158l-4.3,1.023c-2.149.46-4.3,1.074-4.3,1.074A182.055,182.055,0,0,0,68.607,43.333a184.666,184.666,0,0,0-18.06,15.246A177.105,177.105,0,0,0,34.994,75.872,170.849,170.849,0,0,0,0,157.116,159.665,159.665,0,0,1,52.9,88.56c2.814-2.149,5.781-4.042,8.646-5.986,3.018-1.791,5.935-3.684,9-5.27a139.1,139.1,0,0,1,18.725-8.442,146.69,146.69,0,0,1,39.189-8.6c-.358,3.684-.665,7.316-.87,10.948s-.358,7.214-.358,10.9c10.641-17.5,26.911-33.817,48.091-45.891C157.064,20.106,133.07,7.265,105.392,0Z" fill="#0ad0d9"/>
            </g>
            <path id="Trazado_825352-3" data-name="Trazado 825352" d="M105.392,0c2.456,2.916,4.86,5.935,7.214,8.953s4.6,6.088,6.753,9.158l-4.3,1.023c-2.149.46-4.3,1.074-4.3,1.074A182.055,182.055,0,0,0,68.607,43.333a184.666,184.666,0,0,0-18.06,15.246A177.105,177.105,0,0,0,34.994,75.872,170.849,170.849,0,0,0,0,157.116s.256-.87.716-2.507c.512-1.637,1.126-4.042,2.2-7.009A158.993,158.993,0,0,1,13.2,123.5,171.667,171.667,0,0,1,33.971,92.857,181.9,181.9,0,0,1,48.5,77.816a186.619,186.619,0,0,1,16.883-13.4A184.9,184.9,0,0,1,83.955,53.361,169.028,169.028,0,0,1,139.209,36.58,159.908,159.908,0,0,1,165.4,35.557c3.172.051,5.628.358,7.316.46,1.688.153,2.609.2,2.609.2C157.064,20.106,133.07,7.265,105.392,0Z" fill="#273a89" opacity="0.18"/>
          </g>
        </g>
      </g>
    </g>
    <path id="Trazado_825353" data-name="Trazado 825353" d="M187.219,58.24,168.887,26.529A14.391,14.391,0,0,0,157.68,20.1H121.016a14.633,14.633,0,0,0-11.208,6.429L91.564,58.24a14.177,14.177,0,0,0,0,12.945L109.9,102.9a14.391,14.391,0,0,0,11.208,6.429h36.663a14.633,14.633,0,0,0,11.208-6.429l18.332-31.711A14.446,14.446,0,0,0,187.219,58.24Z" transform="translate(376.791 25854.85)" fill="#a86e2f"/>
    <path id="Trazado_825354" data-name="Trazado 825354" d="M202.419,64.2l-21.2-36.669a16.641,16.641,0,0,0-12.96-7.434h-42.4c-4.722,0-10.549,3.416-12.96,7.434L91.808,64.2a16.393,16.393,0,0,0,0,14.969l21.2,36.669a16.641,16.641,0,0,0,12.96,7.434h42.4c4.722,0,10.549-3.416,12.96-7.434l21.2-36.669C204.83,75.054,204.83,68.323,202.419,64.2Z" transform="translate(369.266 25847.936)" fill="none" stroke="#a86e2f" stroke-width="2"/>
    <path id="Trazado_825357" data-name="Trazado 825357" d="M259.817,86.722,227.8,31.33c-3.642-6.222-12.444-11.23-19.577-11.23H144.177c-7.133,0-15.935,5.16-19.577,11.23L92.732,86.722c-3.642,6.222-3.642,16.39,0,22.612l32.021,55.392c3.642,6.222,12.444,11.23,19.577,11.23h64.042c7.133,0,15.935-5.16,19.577-11.23l32.021-55.392C263.459,103.112,263.459,92.944,259.817,86.722Z" transform="translate(339.585 25653.752)" fill="none" stroke="#911b25" stroke-width="2"/>
    <g id="Grupo_1076383" data-name="Grupo 1076383" transform="translate(701.633 25868.035)">
      <path id="Trazado_825355" data-name="Trazado 825355" d="M259.817,86.722,227.8,31.33c-3.642-6.222-12.444-11.23-19.577-11.23H144.177c-7.133,0-15.935,5.16-19.577,11.23L92.732,86.722c-3.642,6.222-3.642,16.39,0,22.612l32.021,55.392c3.642,6.222,12.444,11.23,19.577,11.23h64.042c7.133,0,15.935-5.16,19.577-11.23l32.021-55.392C263.459,103.112,263.459,92.944,259.817,86.722Z" transform="translate(-90 -20.1)" fill="none" stroke="#4d6828" stroke-width="2"/>
      <path id="Trazado_825359" data-name="Trazado 825359" d="M236.856,77.714l-27.691-47.9c-3.15-5.381-10.762-9.712-16.93-9.712H136.852c-6.168,0-13.78,4.462-16.93,9.712l-27.56,47.9c-3.15,5.381-3.15,14.174,0,19.555l27.691,47.9c3.15,5.381,10.762,9.712,16.93,9.712h55.383c6.168,0,13.78-4.462,16.93-9.712l27.691-47.9C240.006,91.888,240.006,83.095,236.856,77.714Z" transform="translate(-78.917 -9.017)" fill="#4d6828"/>
    </g>
    <path id="Trazado_825361" data-name="Trazado 825361" d="M236.856,77.714l-27.691-47.9c-3.15-5.381-10.762-9.712-16.93-9.712H136.852c-6.168,0-13.78,4.462-16.93,9.712l-27.56,47.9c-3.15,5.381-3.15,14.174,0,19.555l27.691,47.9c3.15,5.381,10.762,9.712,16.93,9.712h55.383c6.168,0,13.78-4.462,16.93-9.712l27.691-47.9C240.006,91.888,240.006,83.095,236.856,77.714Z" transform="translate(350.685 25664.834)" fill="#911b25"/>
    <g id="Grupo_1076385" data-name="Grupo 1076385" transform="translate(235.756 25885.475)">
      <path id="Trazado_825358" data-name="Trazado 825358" d="M259.817,86.722,227.8,31.33c-3.642-6.222-12.444-11.23-19.577-11.23H144.178c-7.133,0-15.935,5.16-19.577,11.23L92.732,86.722c-3.642,6.222-3.642,16.39,0,22.612l32.021,55.392c3.642,6.222,12.444,11.23,19.577,11.23h64.042c7.133,0,15.935-5.16,19.577-11.23l32.021-55.392C263.459,103.112,263.459,92.944,259.817,86.722Z" transform="translate(-90 -20.1)" fill="none" stroke="#b071e3" stroke-width="2"/>
      <path id="Trazado_825362" data-name="Trazado 825362" d="M236.856,77.714l-27.691-47.9c-3.15-5.381-10.762-9.712-16.93-9.712H136.852c-6.168,0-13.78,4.462-16.93,9.712l-27.56,47.9c-3.15,5.381-3.15,14.174,0,19.555l27.691,47.9c3.15,5.381,10.762,9.712,16.93,9.712h55.383c6.168,0,13.78-4.462,16.93-9.712l27.691-47.9C240.006,91.888,240.006,83.095,236.856,77.714Z" transform="translate(-78.917 -9.017)" fill="#602492"/>
    </g>
    <path id="Trazado_830667" data-name="Trazado 830667" d="M-9.578-4.164h-1.867V0h-2.344V-11.375h4.227a4.778,4.778,0,0,1,3.109.9A3.1,3.1,0,0,1-5.359-7.937,3.5,3.5,0,0,1-5.863-6,3.437,3.437,0,0,1-7.391-4.758L-4.93-.109V0H-7.445Zm-1.867-1.9h1.891a1.936,1.936,0,0,0,1.367-.449A1.606,1.606,0,0,0-7.7-7.75,1.719,1.719,0,0,0-8.16-9.016a1.9,1.9,0,0,0-1.4-.461h-1.883ZM3.266-4.93h-4.5v3.047H4.047V0H-3.578V-11.375H4.031v1.9H-1.234v2.711h4.5ZM5.422,0V-11.375h3.5a5.315,5.315,0,0,1,2.684.676,4.712,4.712,0,0,1,1.848,1.922,5.928,5.928,0,0,1,.664,2.832v.523a5.945,5.945,0,0,1-.652,2.82,4.672,4.672,0,0,1-1.84,1.914A5.355,5.355,0,0,1,8.945,0ZM7.766-9.477v7.594H8.9a2.545,2.545,0,0,0,2.1-.9,4.06,4.06,0,0,0,.742-2.57v-.6a4.124,4.124,0,0,0-.719-2.629,2.537,2.537,0,0,0-2.1-.895Z" transform="translate(515.547 25756.789)" fill="#fff"/>
    <path id="Trazado_830668" data-name="Trazado 830668" d="M-5.77-9.477H-9.254V0H-11.6V-9.477h-3.437v-1.9H-5.77ZM-4.434,0V-11.375h3.5A5.315,5.315,0,0,1,1.75-10.7,4.712,4.712,0,0,1,3.6-8.777a5.928,5.928,0,0,1,.664,2.832v.523A5.945,5.945,0,0,1,3.609-2.6,4.672,4.672,0,0,1,1.77-.687,5.355,5.355,0,0,1-.91,0ZM-2.09-9.477v7.594H-.957a2.545,2.545,0,0,0,2.1-.9,4.06,4.06,0,0,0,.742-2.57v-.6a4.124,4.124,0,0,0-.719-2.629,2.537,2.537,0,0,0-2.1-.895ZM5.965,0V-11.375h3.5a5.315,5.315,0,0,1,2.684.676A4.712,4.712,0,0,1,14-8.777a5.928,5.928,0,0,1,.664,2.832v.523a5.945,5.945,0,0,1-.652,2.82,4.672,4.672,0,0,1-1.84,1.914A5.355,5.355,0,0,1,9.488,0ZM8.309-9.477v7.594H9.441a2.545,2.545,0,0,0,2.1-.9,4.06,4.06,0,0,0,.742-2.57v-.6a4.124,4.124,0,0,0-.719-2.629,2.537,2.537,0,0,0-2.1-.895Z" transform="translate(515.547 25924.814)" fill="#fff"/>
    <path id="Trazado_830669" data-name="Trazado 830669" d="M-33.984-4.164h-1.867V0H-38.2V-11.375h4.227a4.778,4.778,0,0,1,3.109.9,3.1,3.1,0,0,1,1.094,2.539A3.5,3.5,0,0,1-30.27-6,3.437,3.437,0,0,1-31.8-4.758l2.461,4.648V0h-2.516Zm-1.867-1.9h1.891a1.936,1.936,0,0,0,1.367-.449,1.606,1.606,0,0,0,.484-1.238,1.719,1.719,0,0,0-.457-1.266,1.9,1.9,0,0,0-1.4-.461h-1.883ZM-21.141-4.93h-4.5v3.047h5.281V0h-7.625V-11.375h7.609v1.9h-5.266v2.711h4.5Zm9,.281h-4.5V0h-2.344V-11.375h7.406v1.9h-5.062v2.938h4.5Zm6.844,2.3H-9.406L-10.187,0H-12.68l4.234-11.375h2.172L-2.016,0H-4.508Zm-3.477-1.9H-5.93L-7.359-8.5Zm16.75.453A4.025,4.025,0,0,1,6.621-.9,4.76,4.76,0,0,1,3.4.156,4.28,4.28,0,0,1-.043-1.316,6.038,6.038,0,0,1-1.3-5.359v-.7A6.819,6.819,0,0,1-.719-8.945,4.332,4.332,0,0,1,.934-10.863a4.629,4.629,0,0,1,2.5-.668A4.637,4.637,0,0,1,6.6-10.477,4.326,4.326,0,0,1,7.992-7.516H5.648a2.376,2.376,0,0,0-.613-1.6,2.271,2.271,0,0,0-1.605-.5,1.991,1.991,0,0,0-1.754.84,4.707,4.707,0,0,0-.6,2.605V-5.3a5.038,5.038,0,0,0,.559,2.7A1.954,1.954,0,0,0,3.4-1.758a2.314,2.314,0,0,0,1.621-.5,2.241,2.241,0,0,0,.613-1.535Zm9.875-5.687H14.367V0H12.023V-9.477H8.586v-1.9h9.266ZM28.313-5.43a6.867,6.867,0,0,1-.594,2.945,4.472,4.472,0,0,1-1.7,1.953,4.7,4.7,0,0,1-2.535.688,4.732,4.732,0,0,1-2.523-.68,4.515,4.515,0,0,1-1.719-1.941,6.67,6.67,0,0,1-.617-2.9V-5.93a6.831,6.831,0,0,1,.605-2.957,4.508,4.508,0,0,1,1.711-1.961,4.706,4.706,0,0,1,2.527-.684A4.706,4.706,0,0,1,26-10.848a4.508,4.508,0,0,1,1.711,1.961,6.811,6.811,0,0,1,.605,2.949Zm-2.375-.516A4.787,4.787,0,0,0,25.3-8.664a2.088,2.088,0,0,0-1.828-.93,2.088,2.088,0,0,0-1.82.918A4.732,4.732,0,0,0,21-5.984v.555a4.847,4.847,0,0,0,.641,2.7,2.082,2.082,0,0,0,1.844.961A2.064,2.064,0,0,0,25.3-2.691a4.819,4.819,0,0,0,.641-2.7Zm8.289,1.781H32.359V0H30.016V-11.375h4.227a4.778,4.778,0,0,1,3.109.9,3.1,3.1,0,0,1,1.094,2.539A3.5,3.5,0,0,1,37.941-6a3.437,3.437,0,0,1-1.527,1.238L38.875-.109V0H36.359Zm-1.867-1.9H34.25a1.936,1.936,0,0,0,1.367-.449A1.606,1.606,0,0,0,36.1-7.75a1.719,1.719,0,0,0-.457-1.266,1.9,1.9,0,0,0-1.4-.461H32.359Z" transform="translate(321.077 25967.502)" fill="#fff"/>
    <path id="Trazado_830670" data-name="Trazado 830670" d="M-15.187-1.437A4.068,4.068,0,0,1-16.977-.262a7.492,7.492,0,0,1-2.562.418,5.076,5.076,0,0,1-2.59-.645,4.3,4.3,0,0,1-1.719-1.871,6.585,6.585,0,0,1-.621-2.883v-.773a6.994,6.994,0,0,1,.574-2.949,4.248,4.248,0,0,1,1.656-1.906,4.771,4.771,0,0,1,2.535-.66,4.751,4.751,0,0,1,3.164.965,4.123,4.123,0,0,1,1.352,2.809h-2.281a2.268,2.268,0,0,0-.691-1.43,2.208,2.208,0,0,0-1.473-.453,2.078,2.078,0,0,0-1.82.9,4.724,4.724,0,0,0-.633,2.672v.727a4.5,4.5,0,0,0,.68,2.7,2.327,2.327,0,0,0,1.992.914,2.6,2.6,0,0,0,1.883-.562V-4.25h-2.133V-5.977h4.477Zm6.109-2.727h-1.867V0h-2.344V-11.375h4.227a4.778,4.778,0,0,1,3.109.9A3.1,3.1,0,0,1-4.859-7.937,3.5,3.5,0,0,1-5.363-6,3.437,3.437,0,0,1-6.891-4.758L-4.43-.109V0H-6.945Zm-1.867-1.9h1.891a1.936,1.936,0,0,0,1.367-.449A1.606,1.606,0,0,0-7.2-7.75,1.719,1.719,0,0,0-7.66-9.016a1.9,1.9,0,0,0-1.4-.461h-1.883ZM3.766-4.93h-4.5v3.047H4.547V0H-3.078V-11.375H4.531v1.9H-.734v2.711h4.5Zm9,0h-4.5v3.047h5.281V0H5.922V-11.375h7.609v1.9H8.266v2.711h4.5ZM24.172,0H21.828L17.266-7.484V0H14.922V-11.375h2.344l4.57,7.5v-7.5h2.336Z" transform="translate(787.485 25950.973)" fill="#fff"/>
    <path id="Trazado_830671" data-name="Trazado 830671" d="M21.945,17H20.492V7.367l-2.914,1.07V7.125L21.718,5.57h.227Zm4.414-.758a.905.905,0,0,1,.223-.625.848.848,0,0,1,.668-.25.874.874,0,0,1,.676.25.887.887,0,0,1,.23.625.839.839,0,0,1-.23.6.89.89,0,0,1-.676.242.8.8,0,0,1-.891-.844ZM43.468,17H41.961V11.742H36.226V17h-1.5V5.625h1.5v4.891h5.734V5.625h1.508Zm7.656,0a3.036,3.036,0,0,1-.2-.891,3.225,3.225,0,0,1-2.406,1.047,2.984,2.984,0,0,1-2.051-.707,2.287,2.287,0,0,1-.8-1.793,2.39,2.39,0,0,1,1-2.051,4.733,4.733,0,0,1,2.824-.73H50.9v-.664A1.623,1.623,0,0,0,50.445,10a1.821,1.821,0,0,0-1.336-.449,2.107,2.107,0,0,0-1.3.391,1.151,1.151,0,0,0-.523.945H45.836a2,2,0,0,1,.449-1.223A3.066,3.066,0,0,1,47.5,8.734a4.1,4.1,0,0,1,1.691-.344,3.342,3.342,0,0,1,2.289.73,2.635,2.635,0,0,1,.859,2.012v3.891a4.757,4.757,0,0,0,.3,1.852V17Zm-2.4-1.1a2.54,2.54,0,0,0,1.289-.352,2.127,2.127,0,0,0,.883-.914V12.9H49.765q-2.656,0-2.656,1.555a1.316,1.316,0,0,0,.453,1.063A1.742,1.742,0,0,0,48.726,15.9ZM58,15.977a2.082,2.082,0,0,0,1.352-.469,1.649,1.649,0,0,0,.641-1.172h1.367a2.621,2.621,0,0,1-.5,1.383,3.293,3.293,0,0,1-1.23,1.047A3.55,3.55,0,0,1,58,17.156,3.482,3.482,0,0,1,55.254,16a4.59,4.59,0,0,1-1.02-3.152v-.242a5.089,5.089,0,0,1,.453-2.2,3.451,3.451,0,0,1,1.3-1.492,3.7,3.7,0,0,1,2-.531,3.39,3.39,0,0,1,2.363.852,3.043,3.043,0,0,1,1,2.211H59.992a1.992,1.992,0,0,0-.621-1.348,1.932,1.932,0,0,0-1.379-.527,2.023,2.023,0,0,0-1.707.793,3.724,3.724,0,0,0-.605,2.293v.273a3.65,3.65,0,0,0,.6,2.25A2.033,2.033,0,0,0,58,15.977Zm8.492,1.18a3.693,3.693,0,0,1-2.8-1.129,4.19,4.19,0,0,1-1.078-3.02v-.266A5.073,5.073,0,0,1,63.1,10.5a3.748,3.748,0,0,1,1.344-1.547,3.378,3.378,0,0,1,1.871-.559,3.166,3.166,0,0,1,2.563,1.086,4.7,4.7,0,0,1,.914,3.109v.6H64.062a3,3,0,0,0,.73,2.02,2.3,2.3,0,0,0,1.777.77,2.517,2.517,0,0,0,1.3-.312,3.259,3.259,0,0,0,.93-.828l.883.688A3.55,3.55,0,0,1,66.492,17.156Zm-.18-7.578a1.928,1.928,0,0,0-1.469.637A3.1,3.1,0,0,0,64.109,12h4.234v-.109a2.753,2.753,0,0,0-.594-1.707A1.815,1.815,0,0,0,66.312,9.578Zm9.234.266a4.331,4.331,0,0,0-.711-.055A1.9,1.9,0,0,0,72.906,11v6H71.461V8.547h1.406l.023.977a2.251,2.251,0,0,1,2.016-1.133,1.477,1.477,0,0,1,.641.109ZM80.484,12.7A4.961,4.961,0,0,1,81.4,9.551a3.226,3.226,0,0,1,4.82-.152l.063-.852h1.328v11.7H86.164V16.219a3.033,3.033,0,0,1-2.328.938,2.915,2.915,0,0,1-2.441-1.191,5.072,5.072,0,0,1-.91-3.16Zm1.445.164a3.761,3.761,0,0,0,.613,2.281,1.951,1.951,0,0,0,1.652.828,2.164,2.164,0,0,0,1.969-1.141V10.7a2.171,2.171,0,0,0-1.953-1.117,1.965,1.965,0,0,0-1.664.832A4.094,4.094,0,0,0,81.929,12.867Zm13.219,3.3a3.07,3.07,0,0,1-2.477.992,2.628,2.628,0,0,1-2.059-.785,3.4,3.4,0,0,1-.715-2.324v-5.5h1.445v5.461q0,1.922,1.563,1.922a2.163,2.163,0,0,0,2.2-1.234V8.547h1.445V17H95.179Zm7.109.992a3.693,3.693,0,0,1-2.8-1.129,4.19,4.19,0,0,1-1.078-3.02v-.266a5.073,5.073,0,0,1,.48-2.246,3.748,3.748,0,0,1,1.344-1.547,3.378,3.378,0,0,1,1.871-.559,3.166,3.166,0,0,1,2.563,1.086,4.7,4.7,0,0,1,.914,3.109v.6H99.828a3,3,0,0,0,.73,2.02,2.3,2.3,0,0,0,1.777.77,2.517,2.517,0,0,0,1.3-.312,3.259,3.259,0,0,0,.93-.828l.883.688A3.55,3.55,0,0,1,102.257,17.156Zm-.18-7.578a1.928,1.928,0,0,0-1.469.637A3.1,3.1,0,0,0,99.875,12h4.234v-.109a2.753,2.753,0,0,0-.594-1.707A1.815,1.815,0,0,0,102.078,9.578Zm12.617,7.578a3.693,3.693,0,0,1-2.8-1.129,4.19,4.19,0,0,1-1.078-3.02v-.266a5.073,5.073,0,0,1,.48-2.246,3.748,3.748,0,0,1,1.344-1.547,3.378,3.378,0,0,1,1.871-.559,3.166,3.166,0,0,1,2.563,1.086,4.7,4.7,0,0,1,.914,3.109v.6h-5.727a3,3,0,0,0,.73,2.02,2.3,2.3,0,0,0,1.777.77,2.517,2.517,0,0,0,1.3-.312,3.259,3.259,0,0,0,.93-.828l.883.688A3.55,3.55,0,0,1,114.695,17.156Zm-.18-7.578a1.928,1.928,0,0,0-1.469.637A3.1,3.1,0,0,0,112.312,12h4.234v-.109a2.753,2.753,0,0,0-.594-1.707A1.815,1.815,0,0,0,114.515,9.578ZM121.234,17h-1.445V5h1.445Zm8.234-10.5V8.547h1.578V9.664h-1.578v5.249a1.173,1.173,0,0,0,.211.763.888.888,0,0,0,.719.254,3.5,3.5,0,0,0,.688-.094V17a4.215,4.215,0,0,1-1.109.155,1.8,1.8,0,0,1-1.461-.586,2.517,2.517,0,0,1-.492-1.664V9.664h-1.539V8.547h1.539V6.5Zm6.773,10.656a3.693,3.693,0,0,1-2.8-1.129,4.19,4.19,0,0,1-1.078-3.02v-.266a5.073,5.073,0,0,1,.48-2.246,3.748,3.748,0,0,1,1.344-1.547,3.378,3.378,0,0,1,1.871-.559,3.166,3.166,0,0,1,2.563,1.086,4.7,4.7,0,0,1,.914,3.109v.6h-5.727a3,3,0,0,0,.73,2.02,2.3,2.3,0,0,0,1.777.77,2.517,2.517,0,0,0,1.3-.312,3.258,3.258,0,0,0,.93-.828l.883.688A3.55,3.55,0,0,1,136.242,17.156Zm-.18-7.578a1.928,1.928,0,0,0-1.469.637A3.1,3.1,0,0,0,133.859,12h4.234v-.109a2.753,2.753,0,0,0-.594-1.707A1.815,1.815,0,0,0,136.062,9.578Zm10.07,5.18a1.064,1.064,0,0,0-.441-.91,4.249,4.249,0,0,0-1.539-.559,7.277,7.277,0,0,1-1.742-.562,2.479,2.479,0,0,1-.953-.781,1.869,1.869,0,0,1-.309-1.078,2.193,2.193,0,0,1,.879-1.758,3.432,3.432,0,0,1,2.246-.719,3.532,3.532,0,0,1,2.332.742,2.357,2.357,0,0,1,.895,1.9h-1.453a1.3,1.3,0,0,0-.5-1.023,1.888,1.888,0,0,0-1.27-.43,1.976,1.976,0,0,0-1.234.344,1.082,1.082,0,0,0-.445.9.877.877,0,0,0,.414.789,5.1,5.1,0,0,0,1.5.508,7.8,7.8,0,0,1,1.754.578,2.558,2.558,0,0,1,1,.809,1.988,1.988,0,0,1,.324,1.152,2.163,2.163,0,0,1-.906,1.816,3.8,3.8,0,0,1-2.352.684,4.257,4.257,0,0,1-1.8-.359,2.922,2.922,0,0,1-1.223-1,2.42,2.42,0,0,1-.441-1.395H142.3a1.5,1.5,0,0,0,.582,1.152,2.258,2.258,0,0,0,1.434.426,2.331,2.331,0,0,0,1.316-.332A1.02,1.02,0,0,0,146.132,14.758ZM151.421,6.5V8.547H153V9.664h-1.578v5.249a1.173,1.173,0,0,0,.211.763.888.888,0,0,0,.719.254,3.5,3.5,0,0,0,.688-.094V17a4.215,4.215,0,0,1-1.109.155,1.8,1.8,0,0,1-1.461-.586,2.517,2.517,0,0,1-.492-1.664V9.664h-1.539V8.547h1.539V6.5ZM75.953,36.867a5.062,5.062,0,0,1-.883,3.109,2.829,2.829,0,0,1-2.391,1.18,3.1,3.1,0,0,1-2.422-.977v4.07H68.812v-11.7h1.32l.07.938a2.977,2.977,0,0,1,2.453-1.094,2.882,2.882,0,0,1,2.41,1.148,5.117,5.117,0,0,1,.887,3.2ZM74.507,36.7a3.735,3.735,0,0,0-.609-2.258,1.963,1.963,0,0,0-1.672-.828,2.125,2.125,0,0,0-1.969,1.164V38.82a2.129,2.129,0,0,0,1.984,1.156,1.954,1.954,0,0,0,1.652-.824A4.077,4.077,0,0,0,74.507,36.7Zm8.5,4.3a3.036,3.036,0,0,1-.2-.891A3.225,3.225,0,0,1,80.4,41.156a2.984,2.984,0,0,1-2.051-.707,2.288,2.288,0,0,1-.8-1.793,2.39,2.39,0,0,1,1-2.051,4.733,4.733,0,0,1,2.824-.73h1.406v-.664A1.623,1.623,0,0,0,82.328,34a1.821,1.821,0,0,0-1.336-.449,2.107,2.107,0,0,0-1.3.391,1.151,1.151,0,0,0-.523.945H77.718a2,2,0,0,1,.449-1.223,3.066,3.066,0,0,1,1.219-.934,4.1,4.1,0,0,1,1.691-.344,3.342,3.342,0,0,1,2.289.73,2.635,2.635,0,0,1,.859,2.012v3.891a4.757,4.757,0,0,0,.3,1.852V41Zm-2.4-1.1a2.54,2.54,0,0,0,1.289-.352,2.127,2.127,0,0,0,.883-.914V36.9H81.648q-2.656,0-2.656,1.555a1.316,1.316,0,0,0,.453,1.063A1.742,1.742,0,0,0,80.609,39.9Zm10.8-1.141a1.064,1.064,0,0,0-.441-.91,4.249,4.249,0,0,0-1.539-.559,7.277,7.277,0,0,1-1.742-.562,2.479,2.479,0,0,1-.953-.781,1.869,1.869,0,0,1-.309-1.078,2.193,2.193,0,0,1,.879-1.758,3.432,3.432,0,0,1,2.246-.719,3.532,3.532,0,0,1,2.332.742,2.357,2.357,0,0,1,.895,1.9H91.328a1.3,1.3,0,0,0-.5-1.023,1.888,1.888,0,0,0-1.27-.43,1.976,1.976,0,0,0-1.234.344,1.082,1.082,0,0,0-.445.9.877.877,0,0,0,.414.789,5.1,5.1,0,0,0,1.5.508,7.8,7.8,0,0,1,1.754.578,2.558,2.558,0,0,1,1,.809,1.988,1.988,0,0,1,.324,1.152,2.163,2.163,0,0,1-.906,1.816,3.8,3.8,0,0,1-2.352.684,4.257,4.257,0,0,1-1.8-.359,2.922,2.922,0,0,1-1.223-1A2.42,2.42,0,0,1,86.14,38.4h1.445a1.5,1.5,0,0,0,.582,1.152,2.258,2.258,0,0,0,1.434.426,2.331,2.331,0,0,0,1.316-.332A1.02,1.02,0,0,0,91.414,38.758Zm6.836,2.4a3.693,3.693,0,0,1-2.8-1.129,4.19,4.19,0,0,1-1.078-3.02v-.266a5.073,5.073,0,0,1,.48-2.246A3.748,3.748,0,0,1,96.2,32.949a3.378,3.378,0,0,1,1.871-.559,3.166,3.166,0,0,1,2.563,1.086,4.7,4.7,0,0,1,.914,3.109v.6H95.82a3,3,0,0,0,.73,2.02,2.3,2.3,0,0,0,1.777.77,2.517,2.517,0,0,0,1.3-.312,3.259,3.259,0,0,0,.93-.828l.883.688A3.55,3.55,0,0,1,98.25,41.156Zm-.18-7.578a1.928,1.928,0,0,0-1.469.637A3.1,3.1,0,0,0,95.867,36H100.1v-.109a2.753,2.753,0,0,0-.594-1.707A1.815,1.815,0,0,0,98.07,33.578Z" transform="translate(596.47 25838.063)" fill="#12263f"/>
    <path id="Trazado_830672" data-name="Trazado 830672" d="M7.164,17H5.711V7.367L2.8,8.438V7.125L6.937,5.57h.227Zm4.414-.758a.905.905,0,0,1,.223-.625.848.848,0,0,1,.668-.25.874.874,0,0,1,.676.25.887.887,0,0,1,.23.625.839.839,0,0,1-.23.6.89.89,0,0,1-.676.242.8.8,0,0,1-.891-.844Zm14.8-4.5h-4.93v4.031h5.727V17H19.945V5.625h7.148V6.852H21.445v3.664h4.93ZM30.382,17H28.937V5h1.445Zm3.883,0H32.82V8.547h1.445ZM32.7,6.3a.863.863,0,0,1,.215-.594.807.807,0,0,1,.637-.242.819.819,0,0,1,.641.242.854.854,0,0,1,.219.594.826.826,0,0,1-.219.586.834.834,0,0,1-.641.234.821.821,0,0,1-.637-.234A.834.834,0,0,1,32.7,6.3Zm5.234,2.242.039.938a3.122,3.122,0,0,1,2.508-1.094A2.417,2.417,0,0,1,42.9,9.75,3.2,3.2,0,0,1,44,8.766a3.242,3.242,0,0,1,1.6-.375q2.781,0,2.828,2.945V17H46.976V11.422a1.941,1.941,0,0,0-.414-1.355,1.823,1.823,0,0,0-1.391-.449,1.917,1.917,0,0,0-1.336.48,1.949,1.949,0,0,0-.617,1.293V17H41.765V11.461a1.613,1.613,0,0,0-1.8-1.844,1.934,1.934,0,0,0-1.945,1.211V17H36.57V8.547ZM52.171,17H50.726V8.547h1.445ZM50.609,6.3a.863.863,0,0,1,.215-.594.807.807,0,0,1,.637-.242.819.819,0,0,1,.641.242.854.854,0,0,1,.219.594.826.826,0,0,1-.219.586.834.834,0,0,1-.641.234.821.821,0,0,1-.637-.234A.834.834,0,0,1,50.609,6.3Zm5.242,2.242L55.9,9.609a3.08,3.08,0,0,1,2.531-1.219q2.68,0,2.7,3.023V17H59.687V11.406a1.946,1.946,0,0,0-.418-1.352,1.675,1.675,0,0,0-1.277-.437,2.086,2.086,0,0,0-1.234.375,2.546,2.546,0,0,0-.828.984V17H54.484V8.547ZM68.531,17a3.036,3.036,0,0,1-.2-.891,3.225,3.225,0,0,1-2.406,1.047,2.984,2.984,0,0,1-2.051-.707,2.287,2.287,0,0,1-.8-1.793,2.39,2.39,0,0,1,1-2.051,4.733,4.733,0,0,1,2.824-.73H68.3v-.664A1.623,1.623,0,0,0,67.851,10a1.821,1.821,0,0,0-1.336-.449,2.108,2.108,0,0,0-1.3.391,1.151,1.151,0,0,0-.523.945H63.242a2,2,0,0,1,.449-1.223,3.066,3.066,0,0,1,1.219-.934A4.1,4.1,0,0,1,66.6,8.391a3.342,3.342,0,0,1,2.289.73,2.635,2.635,0,0,1,.859,2.012v3.891a4.757,4.757,0,0,0,.3,1.852V17Zm-2.4-1.1a2.54,2.54,0,0,0,1.289-.352,2.127,2.127,0,0,0,.883-.914V12.9H67.171q-2.656,0-2.656,1.555a1.316,1.316,0,0,0,.453,1.063A1.742,1.742,0,0,0,66.132,15.9ZM76.1,9.844a4.331,4.331,0,0,0-.711-.055A1.9,1.9,0,0,0,73.461,11v6H72.015V8.547h1.406l.023.977a2.251,2.251,0,0,1,2.016-1.133A1.477,1.477,0,0,1,76.1,8.5Zm9.375,0a4.331,4.331,0,0,0-.711-.055A1.9,1.9,0,0,0,82.836,11v6H81.39V8.547H82.8l.023.977a2.251,2.251,0,0,1,2.016-1.133,1.477,1.477,0,0,1,.641.109Zm4.836,7.313a3.693,3.693,0,0,1-2.8-1.129,4.19,4.19,0,0,1-1.078-3.02v-.266a5.073,5.073,0,0,1,.48-2.246,3.748,3.748,0,0,1,1.344-1.547,3.378,3.378,0,0,1,1.871-.559,3.166,3.166,0,0,1,2.563,1.086,4.7,4.7,0,0,1,.914,3.109v.6H87.882a3,3,0,0,0,.73,2.02,2.3,2.3,0,0,0,1.777.77,2.517,2.517,0,0,0,1.3-.312,3.259,3.259,0,0,0,.93-.828l.883.688A3.55,3.55,0,0,1,90.312,17.156Zm-.18-7.578a1.928,1.928,0,0,0-1.469.637A3.1,3.1,0,0,0,87.929,12h4.234v-.109a2.753,2.753,0,0,0-.594-1.707A1.815,1.815,0,0,0,90.132,9.578Zm4.8,3.125a4.952,4.952,0,0,1,.922-3.129,3.137,3.137,0,0,1,4.766-.168V5h1.445V17h-1.328l-.07-.906a2.943,2.943,0,0,1-2.414,1.063,2.887,2.887,0,0,1-2.395-1.2,5.008,5.008,0,0,1-.926-3.141Zm1.445.164a3.749,3.749,0,0,0,.594,2.25,1.92,1.92,0,0,0,1.641.813,2.108,2.108,0,0,0,2.008-1.234V10.813a2.125,2.125,0,0,0-1.992-1.2,1.929,1.929,0,0,0-1.656.82A4.128,4.128,0,0,0,96.375,12.867Zm13.148,3.3a3.07,3.07,0,0,1-2.477.992,2.628,2.628,0,0,1-2.059-.785,3.4,3.4,0,0,1-.715-2.324v-5.5h1.445v5.461q0,1.922,1.563,1.922a2.163,2.163,0,0,0,2.2-1.234V8.547h1.445V17h-1.375Zm4.969-7.617.047,1.063a3.08,3.08,0,0,1,2.531-1.219q2.68,0,2.7,3.023V17h-1.445V11.406a1.946,1.946,0,0,0-.418-1.352,1.675,1.675,0,0,0-1.277-.437,2.086,2.086,0,0,0-1.234.375,2.546,2.546,0,0,0-.828.984V17h-1.445V8.547ZM121.6,12.7a4.952,4.952,0,0,1,.922-3.129,3.137,3.137,0,0,1,4.766-.168V5h1.445V17h-1.328l-.07-.906a2.943,2.943,0,0,1-2.414,1.063,2.887,2.887,0,0,1-2.395-1.2,5.008,5.008,0,0,1-.926-3.141Zm1.445.164a3.749,3.749,0,0,0,.594,2.25,1.92,1.92,0,0,0,1.641.813,2.108,2.108,0,0,0,2.008-1.234V10.813a2.125,2.125,0,0,0-1.992-1.2,1.929,1.929,0,0,0-1.656.82A4.128,4.128,0,0,0,123.046,12.867ZM136.195,17a3.036,3.036,0,0,1-.2-.891,3.225,3.225,0,0,1-2.406,1.047,2.984,2.984,0,0,1-2.051-.707,2.287,2.287,0,0,1-.8-1.793,2.39,2.39,0,0,1,1-2.051,4.733,4.733,0,0,1,2.824-.73h1.406v-.664A1.623,1.623,0,0,0,135.515,10a1.821,1.821,0,0,0-1.336-.449,2.107,2.107,0,0,0-1.3.391,1.151,1.151,0,0,0-.523.945h-1.453a2,2,0,0,1,.449-1.223,3.066,3.066,0,0,1,1.219-.934,4.1,4.1,0,0,1,1.691-.344,3.342,3.342,0,0,1,2.289.73,2.635,2.635,0,0,1,.859,2.012v3.891a4.757,4.757,0,0,0,.3,1.852V17Zm-2.4-1.1a2.54,2.54,0,0,0,1.289-.352,2.127,2.127,0,0,0,.883-.914V12.9h-1.133q-2.656,0-2.656,1.555a1.316,1.316,0,0,0,.453,1.063A1.742,1.742,0,0,0,133.8,15.9Zm7.25-7.352.047,1.063a3.08,3.08,0,0,1,2.531-1.219q2.68,0,2.7,3.023V17h-1.445V11.406a1.946,1.946,0,0,0-.418-1.352,1.675,1.675,0,0,0-1.277-.437,2.086,2.086,0,0,0-1.234.375,2.546,2.546,0,0,0-.828.984V17h-1.445V8.547Zm10.852,7.43a2.082,2.082,0,0,0,1.352-.469,1.649,1.649,0,0,0,.641-1.172h1.367a2.621,2.621,0,0,1-.5,1.383,3.293,3.293,0,0,1-1.23,1.047,3.55,3.55,0,0,1-1.629.391A3.482,3.482,0,0,1,149.152,16a4.59,4.59,0,0,1-1.02-3.152v-.242a5.089,5.089,0,0,1,.453-2.2,3.451,3.451,0,0,1,1.3-1.492,3.7,3.7,0,0,1,2-.531,3.39,3.39,0,0,1,2.363.852,3.043,3.043,0,0,1,1,2.211H153.89a1.992,1.992,0,0,0-.621-1.348,1.932,1.932,0,0,0-1.379-.527,2.023,2.023,0,0,0-1.707.793,3.724,3.724,0,0,0-.605,2.293v.273a3.65,3.65,0,0,0,.6,2.25A2.033,2.033,0,0,0,151.9,15.977ZM158.453,17h-1.445V8.547h1.445ZM156.89,6.3a.863.863,0,0,1,.215-.594.807.807,0,0,1,.637-.242.819.819,0,0,1,.641.242.854.854,0,0,1,.219.594.826.826,0,0,1-.219.586.834.834,0,0,1-.641.234.821.821,0,0,1-.637-.234A.834.834,0,0,1,156.89,6.3ZM165.984,17a3.036,3.036,0,0,1-.2-.891,3.225,3.225,0,0,1-2.406,1.047,2.984,2.984,0,0,1-2.051-.707,2.287,2.287,0,0,1-.8-1.793,2.39,2.39,0,0,1,1-2.051,4.733,4.733,0,0,1,2.824-.73h1.406v-.664A1.623,1.623,0,0,0,165.3,10a1.821,1.821,0,0,0-1.336-.449,2.107,2.107,0,0,0-1.3.391,1.151,1.151,0,0,0-.523.945h-1.453a2,2,0,0,1,.449-1.223,3.066,3.066,0,0,1,1.219-.934,4.1,4.1,0,0,1,1.691-.344,3.342,3.342,0,0,1,2.289.73,2.635,2.635,0,0,1,.859,2.012v3.891a4.757,4.757,0,0,0,.3,1.852V17Zm-2.4-1.1a2.54,2.54,0,0,0,1.289-.352,2.127,2.127,0,0,0,.883-.914V12.9h-1.133q-2.656,0-2.656,1.555a1.316,1.316,0,0,0,.453,1.063A1.742,1.742,0,0,0,163.586,15.9Z" transform="translate(286.618 25838.063)" fill="#12263f"/>
    <path id="Trazado_830673" data-name="Trazado 830673" d="M7.351,17H5.9V7.367L2.984,8.438V7.125L7.125,5.57h.227Zm4.414-.758a.905.905,0,0,1,.223-.625.848.848,0,0,1,.668-.25.874.874,0,0,1,.676.25.887.887,0,0,1,.23.625.839.839,0,0,1-.23.6.89.89,0,0,1-.676.242.8.8,0,0,1-.891-.844Zm14.8-4.5h-4.93v4.031h5.727V17H20.132V5.625h7.148V6.852H21.632v3.664h4.93Zm7.359,3.016a1.064,1.064,0,0,0-.441-.91,4.249,4.249,0,0,0-1.539-.559,7.277,7.277,0,0,1-1.742-.562,2.479,2.479,0,0,1-.953-.781,1.869,1.869,0,0,1-.309-1.078,2.193,2.193,0,0,1,.879-1.758,3.432,3.432,0,0,1,2.246-.719,3.532,3.532,0,0,1,2.332.742,2.357,2.357,0,0,1,.895,1.9H33.836a1.3,1.3,0,0,0-.5-1.023,1.888,1.888,0,0,0-1.27-.43,1.976,1.976,0,0,0-1.234.344,1.082,1.082,0,0,0-.445.9.877.877,0,0,0,.414.789,5.1,5.1,0,0,0,1.5.508,7.8,7.8,0,0,1,1.754.578,2.558,2.558,0,0,1,1,.809,1.988,1.988,0,0,1,.324,1.152,2.163,2.163,0,0,1-.906,1.816,3.8,3.8,0,0,1-2.352.684,4.257,4.257,0,0,1-1.8-.359,2.922,2.922,0,0,1-1.223-1,2.42,2.42,0,0,1-.441-1.395h1.445a1.5,1.5,0,0,0,.582,1.152,2.258,2.258,0,0,0,1.434.426,2.331,2.331,0,0,0,1.316-.332A1.02,1.02,0,0,0,33.921,14.758Zm6.719,1.219a2.082,2.082,0,0,0,1.352-.469,1.649,1.649,0,0,0,.641-1.172H44a2.621,2.621,0,0,1-.5,1.383,3.293,3.293,0,0,1-1.23,1.047,3.55,3.55,0,0,1-1.629.391A3.482,3.482,0,0,1,37.894,16a4.59,4.59,0,0,1-1.02-3.152v-.242a5.089,5.089,0,0,1,.453-2.2,3.451,3.451,0,0,1,1.3-1.492,3.7,3.7,0,0,1,2-.531A3.39,3.39,0,0,1,43,9.242a3.043,3.043,0,0,1,1,2.211H42.632a1.992,1.992,0,0,0-.621-1.348,1.932,1.932,0,0,0-1.379-.527,2.023,2.023,0,0,0-1.707.793,3.724,3.724,0,0,0-.605,2.293v.273a3.65,3.65,0,0,0,.6,2.25A2.033,2.033,0,0,0,40.64,15.977Zm9.07-6.133A4.331,4.331,0,0,0,49,9.789,1.9,1.9,0,0,0,47.07,11v6H45.625V8.547h1.406l.023.977A2.251,2.251,0,0,1,49.07,8.391a1.477,1.477,0,0,1,.641.109ZM52.609,17H51.164V8.547h1.445ZM51.046,6.3a.863.863,0,0,1,.215-.594.807.807,0,0,1,.637-.242.819.819,0,0,1,.641.242.854.854,0,0,1,.219.594.826.826,0,0,1-.219.586.834.834,0,0,1-.641.234.821.821,0,0,1-.637-.234A.834.834,0,0,1,51.046,6.3Zm11.031,6.563a5.026,5.026,0,0,1-.891,3.113A2.846,2.846,0,0,1,58.8,17.156a2.947,2.947,0,0,1-2.477-1.133L56.25,17H54.921V5h1.445V9.477a2.93,2.93,0,0,1,2.414-1.086A2.863,2.863,0,0,1,61.2,9.555a5.177,5.177,0,0,1,.879,3.188ZM60.632,12.7a3.906,3.906,0,0,0-.57-2.281,1.888,1.888,0,0,0-1.641-.8,2.122,2.122,0,0,0-2.055,1.328V14.6a2.181,2.181,0,0,0,2.07,1.328,1.878,1.878,0,0,0,1.617-.8A4.153,4.153,0,0,0,60.632,12.7ZM65.468,17H64.023V8.547h1.445ZM63.906,6.3a.863.863,0,0,1,.215-.594.807.807,0,0,1,.637-.242.819.819,0,0,1,.641.242.854.854,0,0,1,.219.594.826.826,0,0,1-.219.586.834.834,0,0,1-.641.234.821.821,0,0,1-.637-.234A.834.834,0,0,1,63.906,6.3Zm7.961,3.539a4.331,4.331,0,0,0-.711-.055A1.9,1.9,0,0,0,69.226,11v6H67.781V8.547h1.406l.023.977a2.251,2.251,0,0,1,2.016-1.133,1.477,1.477,0,0,1,.641.109Zm10.508,6.32a3.07,3.07,0,0,1-2.477.992,2.628,2.628,0,0,1-2.059-.785,3.4,3.4,0,0,1-.715-2.324v-5.5H78.57v5.461q0,1.922,1.563,1.922a2.163,2.163,0,0,0,2.2-1.234V8.547h1.445V17H82.406Zm4.969-7.617.047,1.063a3.08,3.08,0,0,1,2.531-1.219q2.68,0,2.7,3.023V17H91.179V11.406a1.946,1.946,0,0,0-.418-1.352,1.675,1.675,0,0,0-1.277-.437,2.086,2.086,0,0,0-1.234.375,2.546,2.546,0,0,0-.828.984V17H85.976V8.547ZM4.742,30.5v2.047H6.32v1.117H4.742v5.249a1.173,1.173,0,0,0,.211.763.888.888,0,0,0,.719.254,3.5,3.5,0,0,0,.688-.094V41a4.215,4.215,0,0,1-1.109.155,1.8,1.8,0,0,1-1.461-.586A2.517,2.517,0,0,1,3.3,38.906V33.664H1.757V32.547H3.3V30.5Zm6.773,10.656a3.693,3.693,0,0,1-2.8-1.129,4.19,4.19,0,0,1-1.078-3.02v-.266a5.073,5.073,0,0,1,.48-2.246,3.748,3.748,0,0,1,1.344-1.547,3.378,3.378,0,0,1,1.871-.559A3.166,3.166,0,0,1,13.9,33.477a4.7,4.7,0,0,1,.914,3.109v.6H9.086a3,3,0,0,0,.73,2.02,2.3,2.3,0,0,0,1.777.77,2.517,2.517,0,0,0,1.3-.312,3.258,3.258,0,0,0,.93-.828l.883.688A3.55,3.55,0,0,1,11.515,41.156Zm-.18-7.578a1.928,1.928,0,0,0-1.469.637A3.1,3.1,0,0,0,9.132,36h4.234v-.109a2.753,2.753,0,0,0-.594-1.707A1.815,1.815,0,0,0,11.336,33.578Zm10.07,5.18a1.064,1.064,0,0,0-.441-.91,4.249,4.249,0,0,0-1.539-.559,7.277,7.277,0,0,1-1.742-.562,2.479,2.479,0,0,1-.953-.781,1.869,1.869,0,0,1-.309-1.078,2.193,2.193,0,0,1,.879-1.758,3.432,3.432,0,0,1,2.246-.719,3.532,3.532,0,0,1,2.332.742,2.357,2.357,0,0,1,.895,1.9H21.32a1.3,1.3,0,0,0-.5-1.023,1.888,1.888,0,0,0-1.27-.43,1.976,1.976,0,0,0-1.234.344,1.082,1.082,0,0,0-.445.9.877.877,0,0,0,.414.789,5.1,5.1,0,0,0,1.5.508,7.8,7.8,0,0,1,1.754.578,2.558,2.558,0,0,1,1,.809,1.988,1.988,0,0,1,.324,1.152,2.163,2.163,0,0,1-.906,1.816,3.8,3.8,0,0,1-2.352.684,4.257,4.257,0,0,1-1.8-.359,2.922,2.922,0,0,1-1.223-1,2.42,2.42,0,0,1-.441-1.395h1.445a1.5,1.5,0,0,0,.582,1.152,2.258,2.258,0,0,0,1.434.426,2.331,2.331,0,0,0,1.316-.332A1.02,1.02,0,0,0,21.406,38.758ZM26.695,30.5v2.047h1.578v1.117H26.695v5.249a1.173,1.173,0,0,0,.211.763.888.888,0,0,0,.719.254,3.5,3.5,0,0,0,.688-.094V41a4.215,4.215,0,0,1-1.109.155,1.8,1.8,0,0,1-1.461-.586,2.517,2.517,0,0,1-.492-1.664V33.664H23.711V32.547H25.25V30.5Zm6.875,6.2a4.961,4.961,0,0,1,.914-3.152A3.226,3.226,0,0,1,39.3,33.4l.063-.852h1.328v11.7H39.25V40.219a3.033,3.033,0,0,1-2.328.938,2.915,2.915,0,0,1-2.441-1.191,5.072,5.072,0,0,1-.91-3.16Zm1.445.164a3.761,3.761,0,0,0,.613,2.281,1.951,1.951,0,0,0,1.652.828,2.164,2.164,0,0,0,1.969-1.141V34.7A2.171,2.171,0,0,0,37.3,33.578a1.965,1.965,0,0,0-1.664.832A4.094,4.094,0,0,0,35.015,36.867Zm13.219,3.3a3.07,3.07,0,0,1-2.477.992,2.628,2.628,0,0,1-2.059-.785,3.4,3.4,0,0,1-.715-2.324v-5.5h1.445v5.461q0,1.922,1.563,1.922a2.163,2.163,0,0,0,2.2-1.234V32.547H49.64V41H48.265Zm7.109.992a3.693,3.693,0,0,1-2.8-1.129,4.19,4.19,0,0,1-1.078-3.02v-.266a5.073,5.073,0,0,1,.48-2.246,3.748,3.748,0,0,1,1.344-1.547,3.378,3.378,0,0,1,1.871-.559,3.166,3.166,0,0,1,2.563,1.086,4.7,4.7,0,0,1,.914,3.109v.6H52.914a3,3,0,0,0,.73,2.02,2.3,2.3,0,0,0,1.777.77,2.517,2.517,0,0,0,1.3-.312,3.258,3.258,0,0,0,.93-.828l.883.688A3.55,3.55,0,0,1,55.343,41.156Zm-.18-7.578a1.928,1.928,0,0,0-1.469.637A3.1,3.1,0,0,0,52.961,36h4.234v-.109a2.753,2.753,0,0,0-.594-1.707A1.815,1.815,0,0,0,55.164,33.578ZM64.984,41V33.664H63.648V32.547h1.336V31.68a2.878,2.878,0,0,1,.727-2.1,2.745,2.745,0,0,1,2.055-.742,3.816,3.816,0,0,1,.992.132l-.078,1.165a4.151,4.151,0,0,0-.781-.07,1.41,1.41,0,0,0-1.086.411,1.669,1.669,0,0,0-.383,1.18v.893h1.8v1.117h-1.8V41Zm10.063,0a3.036,3.036,0,0,1-.2-.891,3.225,3.225,0,0,1-2.406,1.047,2.984,2.984,0,0,1-2.051-.707,2.288,2.288,0,0,1-.8-1.793,2.39,2.39,0,0,1,1-2.051,4.733,4.733,0,0,1,2.824-.73H74.82v-.664A1.623,1.623,0,0,0,74.367,34a1.821,1.821,0,0,0-1.336-.449,2.107,2.107,0,0,0-1.3.391,1.151,1.151,0,0,0-.523.945H69.757a2,2,0,0,1,.449-1.223,3.066,3.066,0,0,1,1.219-.934,4.1,4.1,0,0,1,1.691-.344,3.342,3.342,0,0,1,2.289.73,2.635,2.635,0,0,1,.859,2.012v3.891a4.757,4.757,0,0,0,.3,1.852V41Zm-2.4-1.1a2.54,2.54,0,0,0,1.289-.352,2.127,2.127,0,0,0,.883-.914V36.9H73.687q-2.656,0-2.656,1.555a1.316,1.316,0,0,0,.453,1.063A1.742,1.742,0,0,0,72.648,39.9ZM80.1,41H78.656V29H80.1Zm3.883,0H82.539V29h1.445Zm5.82.156a3.693,3.693,0,0,1-2.8-1.129,4.19,4.19,0,0,1-1.078-3.02v-.266a5.073,5.073,0,0,1,.48-2.246,3.748,3.748,0,0,1,1.344-1.547,3.378,3.378,0,0,1,1.871-.559,3.166,3.166,0,0,1,2.563,1.086,4.7,4.7,0,0,1,.914,3.109v.6H87.375a3,3,0,0,0,.73,2.02,2.3,2.3,0,0,0,1.777.77,2.517,2.517,0,0,0,1.3-.312,3.259,3.259,0,0,0,.93-.828l.883.688A3.55,3.55,0,0,1,89.8,41.156Zm-.18-7.578a1.928,1.928,0,0,0-1.469.637A3.1,3.1,0,0,0,87.421,36h4.234v-.109a2.753,2.753,0,0,0-.594-1.707A1.815,1.815,0,0,0,89.625,33.578Z" transform="translate(613.193 25728.164)" fill="#12263f"/>
  </g>
</svg>
